<svg xmlns="http://www.w3.org/2000/svg" xmlns:xlink="http://www.w3.org/1999/xlink" width="793" zoomAndPan="magnify" viewBox="0 0 595.5 842.249979" height="1122" preserveAspectRatio="xMidYMid meet" version="1.0"><defs><filter x="0%" y="0%" width="100%" height="100%" id="9fe77c66d4"><feColorMatrix values="0 0 0 0 1 0 0 0 0 1 0 0 0 0 1 0 0 0 1 0" color-interpolation-filters="sRGB"/></filter><clipPath id="80cb894327"><path d="M 0.015625 0 L 594.984375 0 L 594.984375 841.5 L 0.015625 841.5 Z M 0.015625 0 " clip-rule="nonzero"/></clipPath><clipPath id="d45fcda9d4"><path d="M 0.015625 0 L 27 0 L 27 147 L 0.015625 147 Z M 0.015625 0 " clip-rule="nonzero"/></clipPath><clipPath id="d74f25417e"><path d="M 109.714844 -40.617188 L -115.921875 227.242188 L -337.324219 40.738281 L -111.6875 -227.121094 Z M 109.714844 -40.617188 " clip-rule="nonzero"/></clipPath><clipPath id="f04eb50400"><path d="M 109.714844 -40.617188 L -115.921875 227.242188 L -337.324219 40.738281 L -111.6875 -227.121094 Z M 109.714844 -40.617188 " clip-rule="nonzero"/></clipPath><clipPath id="29ae88969d"><path d="M 347 579 L 594.984375 579 L 594.984375 841.5 L 347 841.5 Z M 347 579 " clip-rule="nonzero"/></clipPath><clipPath id="005f3f9c02"><path d="M 264.726562 766.023438 L 490.367188 498.160156 L 711.769531 684.664062 L 486.128906 952.523438 Z M 264.726562 766.023438 " clip-rule="nonzero"/></clipPath><clipPath id="5e767f17ec"><path d="M 264.726562 766.023438 L 490.367188 498.160156 L 711.769531 684.664062 L 486.128906 952.523438 Z M 264.726562 766.023438 " clip-rule="nonzero"/></clipPath><clipPath id="5ba5fba46e"><path d="M 0.015625 0 L 114 0 L 114 126 L 0.015625 126 Z M 0.015625 0 " clip-rule="nonzero"/></clipPath><clipPath id="66b204f8ee"><path d="M 195.957031 -61.605469 L -29.679688 206.253906 L -251.082031 19.75 L -25.441406 -248.109375 Z M 195.957031 -61.605469 " clip-rule="nonzero"/></clipPath><clipPath id="70544aea7c"><path d="M 195.957031 -61.605469 L -29.679688 206.253906 L -251.082031 19.75 L -25.441406 -248.109375 Z M 195.957031 -61.605469 " clip-rule="nonzero"/></clipPath><clipPath id="0f64fbc6d1"><path d="M 349.457031 750.613281 L 412.445312 750.613281 L 412.445312 813.601562 L 349.457031 813.601562 Z M 349.457031 750.613281 " clip-rule="nonzero"/></clipPath><clipPath id="0a9786244f"><path d="M 380.953125 813.601562 C 398.34375 813.601562 412.445312 799.503906 412.445312 782.109375 C 412.445312 764.714844 398.34375 750.613281 380.953125 750.613281 C 363.558594 750.613281 349.457031 764.714844 349.457031 782.109375 C 349.457031 799.503906 363.558594 813.601562 380.953125 813.601562 " clip-rule="nonzero"/></clipPath><clipPath id="ae0bcb0f58"><path d="M 182.824219 23.929688 L 245.816406 23.929688 L 245.816406 86.917969 L 182.824219 86.917969 Z M 182.824219 23.929688 " clip-rule="nonzero"/></clipPath><clipPath id="1438a3c9aa"><path d="M 214.320312 23.929688 C 196.925781 23.929688 182.824219 38.03125 182.824219 55.425781 C 182.824219 72.820312 196.925781 86.917969 214.320312 86.917969 C 231.714844 86.917969 245.816406 72.820312 245.816406 55.425781 C 245.816406 38.03125 231.714844 23.929688 214.320312 23.929688 " clip-rule="nonzero"/></clipPath><clipPath id="e9b3f15be4"><path d="M 529.710938 629.796875 L 563.953125 629.796875 L 563.953125 664.042969 L 529.710938 664.042969 Z M 529.710938 629.796875 " clip-rule="nonzero"/></clipPath><clipPath id="7e651bd7e1"><path d="M 546.832031 664.042969 C 556.289062 664.042969 563.953125 656.375 563.953125 646.917969 C 563.953125 637.464844 556.289062 629.796875 546.832031 629.796875 C 537.375 629.796875 529.710938 637.464844 529.710938 646.917969 C 529.710938 656.375 537.375 664.042969 546.832031 664.042969 " clip-rule="nonzero"/></clipPath><clipPath id="f3d8b41295"><path d="M 31.316406 173.492188 L 65.5625 173.492188 L 65.5625 207.738281 L 31.316406 207.738281 Z M 31.316406 173.492188 " clip-rule="nonzero"/></clipPath><clipPath id="015532d14c"><path d="M 48.441406 173.492188 C 38.984375 173.492188 31.316406 181.160156 31.316406 190.613281 C 31.316406 200.070312 38.984375 207.738281 48.441406 207.738281 C 57.894531 207.738281 65.5625 200.070312 65.5625 190.613281 C 65.5625 181.160156 57.894531 173.492188 48.441406 173.492188 " clip-rule="nonzero"/></clipPath><clipPath id="62b646e4b9"><path d="M 0.015625 63 L 358 63 L 358 659 L 0.015625 659 Z M 0.015625 63 " clip-rule="nonzero"/></clipPath><mask id="2d485b5813"><g filter="url(#9fe77c66d4)"><rect x="-59.55" width="714.6" fill="#000000" y="-84.224998" height="1010.699974" fill-opacity="0.298"/></g></mask><clipPath id="3eeb90b9be"><path d="M 0.015625 269 L 246 269 L 246 586 L 0.015625 586 Z M 0.015625 269 " clip-rule="nonzero"/></clipPath><clipPath id="753f726cfe"><path d="M 239.976562 601.035156 L -406.382812 589.230469 L -400.546875 269.796875 L 245.808594 281.605469 Z M 239.976562 601.035156 " clip-rule="nonzero"/></clipPath><clipPath id="93a25d0f0f"><path d="M 344.257812 602.941406 L -507.558594 587.378906 L -496.84375 1.007812 L 354.96875 16.570312 Z M 344.257812 602.941406 " clip-rule="nonzero"/></clipPath><clipPath id="71f15d764b"><rect x="0" width="358" y="0" height="596"/></clipPath><clipPath id="805084bd14"><path d="M 182 0 L 594.984375 0 L 594.984375 350 L 182 350 Z M 182 0 " clip-rule="nonzero"/></clipPath><mask id="dbda10446a"><g filter="url(#9fe77c66d4)"><rect x="-59.55" width="714.6" fill="#000000" y="-84.224998" height="1010.699974" fill-opacity="0.298"/></g></mask><clipPath id="087ccb80a3"><path d="M 105 23 L 412.984375 23 L 412.984375 340 L 105 340 Z M 105 23 " clip-rule="nonzero"/></clipPath><clipPath id="cb10b1ec66"><path d="M 751.976562 355.167969 L 105.617188 343.363281 L 111.453125 23.933594 L 757.8125 35.738281 Z M 751.976562 355.167969 " clip-rule="nonzero"/></clipPath><clipPath id="66c76d3d10"><path d="M 856.257812 357.074219 L 4.441406 341.515625 L 15.15625 -244.859375 L 866.96875 -229.296875 Z M 856.257812 357.074219 " clip-rule="nonzero"/></clipPath><clipPath id="887c5dbe1b"><rect x="0" width="413" y="0" height="350"/></clipPath></defs><g clip-path="url(#80cb894327)"><path fill="#ffffff" d="M 0.015625 0 L 595.484375 0 L 595.484375 848.957031 L 0.015625 848.957031 Z M 0.015625 0 " fill-opacity="1" fill-rule="nonzero"/><path fill="#ffffff" d="M 0.015625 0 L 595.484375 0 L 595.484375 842.207031 L 0.015625 842.207031 Z M 0.015625 0 " fill-opacity="1" fill-rule="nonzero"/><path fill="#ffffff" d="M 0.015625 0 L 595.484375 0 L 595.484375 842.207031 L 0.015625 842.207031 Z M 0.015625 0 " fill-opacity="1" fill-rule="nonzero"/></g><g clip-path="url(#d45fcda9d4)"><g clip-path="url(#d74f25417e)"><g clip-path="url(#f04eb50400)"><path fill="#03989e" d="M -224.144531 -92.4375 C -197.902344 -122.347656 -162.066406 -138.785156 -125.277344 -141.210938 C -88.484375 -143.632812 -132.171875 -32.46875 -20.894531 -105.796875 C 8.851562 -125.421875 22.496094 -60.066406 26.75 -19.777344 C 27.554688 -12.269531 24.808594 -4.808594 19.445312 0.550781 C -17.582031 37.582031 17.019531 69.421875 -7.59375 97.457031 C -31.835938 125.113281 -71.410156 95.566406 -99.800781 135.1875 C -105.046875 142.539062 -113.613281 146.789062 -122.632812 146.371094 C -154.070312 144.925781 -213.800781 144.628906 -210.789062 110.8125 C -203.269531 26.132812 -257.121094 48.746094 -259.53125 11.953125 C -261.941406 -24.835938 -250.332031 -62.53125 -224.144531 -92.4375 Z M -224.144531 -92.4375 " fill-opacity="1" fill-rule="nonzero"/></g></g></g><g clip-path="url(#29ae88969d)"><g clip-path="url(#005f3f9c02)"><g clip-path="url(#5e767f17ec)"><path fill="#ffeda1" d="M 598.585938 817.839844 C 572.34375 847.75 536.507812 864.191406 499.71875 866.613281 C 462.929688 869.035156 506.617188 757.871094 395.339844 831.199219 C 365.59375 850.824219 351.945312 785.46875 347.691406 745.183594 C 346.890625 737.671875 349.636719 730.210938 354.996094 724.855469 C 392.023438 687.824219 357.421875 655.984375 382.039062 627.945312 C 406.28125 600.292969 445.855469 629.835938 474.242188 590.21875 C 479.488281 582.867188 488.058594 578.613281 497.078125 579.03125 C 528.515625 580.480469 588.242188 580.773438 585.230469 614.589844 C 577.714844 699.273438 631.5625 676.660156 633.972656 713.449219 C 636.386719 750.242188 624.773438 787.9375 598.585938 817.839844 Z M 598.585938 817.839844 " fill-opacity="1" fill-rule="nonzero"/></g></g></g><g clip-path="url(#5ba5fba46e)"><g clip-path="url(#66b204f8ee)"><g clip-path="url(#70544aea7c)"><path fill="#5ce1e6" d="M -137.898438 -113.425781 C -111.65625 -143.335938 -75.820312 -159.777344 -39.03125 -162.199219 C -2.242188 -164.621094 -45.929688 -53.457031 65.347656 -126.785156 C 95.09375 -146.410156 108.742188 -81.054688 112.992188 -40.769531 C 113.796875 -33.257812 111.050781 -25.796875 105.691406 -20.4375 C 68.664062 16.59375 103.265625 48.433594 78.648438 76.46875 C 54.40625 104.125 14.832031 74.578125 -13.558594 114.199219 C -18.800781 121.546875 -27.371094 125.800781 -36.390625 125.382812 C -67.828125 123.9375 -127.554688 123.640625 -124.546875 89.824219 C -117.027344 5.144531 -170.875 27.757812 -173.289062 -9.035156 C -175.699219 -45.824219 -164.085938 -83.519531 -137.898438 -113.425781 Z M -137.898438 -113.425781 " fill-opacity="1" fill-rule="nonzero"/></g></g></g><g clip-path="url(#0f64fbc6d1)"><g clip-path="url(#0a9786244f)"><path fill="#00c2cb" d="M 412.445312 813.601562 L 349.457031 813.601562 L 349.457031 750.613281 L 412.445312 750.613281 Z M 412.445312 813.601562 " fill-opacity="1" fill-rule="nonzero"/></g></g><g clip-path="url(#ae0bcb0f58)"><g clip-path="url(#1438a3c9aa)"><path fill="#00c2cb" d="M 182.824219 23.929688 L 245.8125 23.929688 L 245.8125 86.917969 L 182.824219 86.917969 Z M 182.824219 23.929688 " fill-opacity="1" fill-rule="nonzero"/></g></g><g clip-path="url(#e9b3f15be4)"><g clip-path="url(#7e651bd7e1)"><path fill="#5ce1e6" d="M 563.953125 664.042969 L 529.710938 664.042969 L 529.710938 629.796875 L 563.953125 629.796875 Z M 563.953125 664.042969 " fill-opacity="1" fill-rule="nonzero"/></g></g><g clip-path="url(#f3d8b41295)"><g clip-path="url(#015532d14c)"><path fill="#5ce1e6" d="M 31.316406 173.492188 L 65.5625 173.492188 L 65.5625 207.738281 L 31.316406 207.738281 Z M 31.316406 173.492188 " fill-opacity="1" fill-rule="nonzero"/></g></g><g clip-path="url(#62b646e4b9)"><g mask="url(#2d485b5813)"><g transform="matrix(1, 0, 0, 1, -0.000000000000000002, 63)"><g clip-path="url(#71f15d764b)"><g clip-path="url(#3eeb90b9be)"><g clip-path="url(#753f726cfe)"><g clip-path="url(#93a25d0f0f)"><path fill="#f1ffee" d="M -412.148438 347.300781 C -414.976562 343.175781 -404.980469 337.234375 -411.867188 331.839844 C -414.273438 331.734375 -415.535156 332.8125 -416.136719 334.566406 C -419.253906 333.925781 -417.105469 327.09375 -415.984375 326.136719 C -416.519531 322.96875 -423.433594 325.960938 -424.367188 323.171875 C -415.925781 298.035156 -395.3125 285.523438 -370.09375 277.78125 C -401.421875 260.210938 -464.84375 263.203125 -496.246094 254.398438 C -497.332031 243.792969 -500.214844 238.214844 -497.160156 227.667969 C -496.125 223.914062 -500.019531 224.902344 -501.296875 223.378906 C -495.3125 211.164062 -493.453125 202.242188 -490.761719 185.621094 C -474.242188 175.957031 -454.050781 170.207031 -431.429688 171.242188 C -420.617188 171.742188 -410.222656 178.835938 -400.632812 178.835938 C -395.714844 178.835938 -392.542969 176.445312 -385.160156 179.117188 C -383.308594 176.773438 -385.359375 170.5 -382.125 166.523438 C -388.679688 159.035156 -402.945312 158.976562 -409.984375 151.957031 C -413.648438 153.699219 -414.457031 154.777344 -412.921875 158.929688 C -414.960938 156.289062 -420.152344 156.691406 -419.828125 151.777344 C -418.460938 151.839844 -418.761719 153.511719 -418.46875 154.605469 C -414.480469 154.925781 -419.996094 145.386719 -414.125 147.65625 C -419.902344 141.398438 -421.027344 134.332031 -429.328125 133.324219 C -429.679688 127.714844 -429.222656 122.945312 -426.292969 120.734375 C -439.070312 100.40625 -417.707031 88.4375 -407.195312 76.101562 C -385.929688 63.425781 -361.003906 72.789062 -336.71875 67.546875 C -336.203125 67.429688 -333.308594 66.71875 -332.480469 66.222656 C -312.089844 54.027344 -292.613281 24.355469 -260.167969 33.804688 C -255.738281 30.121094 -263.746094 28.390625 -260.015625 25.375 C -250.546875 27.078125 -245.191406 24.519531 -244.394531 17.230469 C -226.613281 22.527344 -219.585938 19.480469 -203.539062 13.757812 C -204.878906 11.839844 -207.234375 10.886719 -209.085938 9.441406 C -197.621094 9.136719 -184.136719 13.992188 -172.640625 15.738281 C -171.601562 11.976562 -175.492188 12.964844 -176.777344 11.449219 C -163.15625 8.445312 -144.882812 12.910156 -131.84375 15.074219 C -129.933594 14.675781 -130.617188 11.578125 -130.339844 9.476562 C -120.65625 10.847656 -101.511719 11.023438 -92.507812 17.199219 C -89.449219 16.25 -82.363281 15.601562 -77.035156 17.484375 C -46.4375 28.292969 -5.546875 37.355469 28.019531 40.488281 C 34.4375 41.078125 41.046875 37.851562 46.246094 43.625 C 76.199219 41.996094 100.980469 55.945312 128.886719 62.003906 C 157.921875 68.304688 186.710938 76.960938 213.015625 76.1875 C 211.484375 72.839844 199.003906 71.175781 196.351562 64.640625 C 233.65625 67.777344 251.476562 80.550781 281.675781 90.09375 C 281.042969 93.464844 284.1875 93.195312 282.949219 97.148438 C 296.785156 108.402344 303.015625 121.851562 320.292969 131.566406 C 318.992188 134.027344 314.558594 133.257812 315.949219 138.519531 C 324.75 143.746094 316.570312 144.558594 327.042969 147.15625 C 325.46875 150.765625 323.503906 153.980469 324.003906 159.746094 C 320.007812 161.925781 318.054688 157.277344 318.300781 163.851562 C 315.246094 164.035156 317.75 158.855469 317.023438 156.804688 C 311.984375 159.484375 314.207031 158.582031 308.582031 156.652344 C 306.070312 163.679688 312.953125 161.648438 315.488281 163.800781 C 314.546875 169.023438 318.925781 172.757812 315.257812 176.449219 C 316.863281 180.066406 328.085938 180.871094 320.726562 184.984375 C 327.046875 187.628906 328.796875 194.691406 337.421875 195.128906 C 336.039062 203.097656 335.417969 203.21875 334.328125 210.53125 C 331.832031 210.804688 327.3125 208.984375 328.652344 213.238281 C 322.871094 213.78125 329.28125 210.242188 327.371094 206.183594 C 319.777344 206.300781 307.273438 221.417969 306.136719 214.234375 C 300.320312 219.765625 300.160156 221.992188 287.710938 222.332031 C 288.234375 225.046875 293.132812 223.53125 291.820312 228.027344 C 287.367188 228.636719 286.894531 225.40625 282.003906 226.445312 C 282.699219 234.976562 294.363281 232.941406 300.101562 236.609375 C 298.332031 241.914062 297.675781 244.105469 291.566406 242.078125 C 289.195312 251.832031 298.6875 253.367188 302.675781 249.3125 C 300.601562 254.328125 297.082031 257.824219 294.015625 261.804688 C 298.039062 264.828125 301.773438 268.132812 306.503906 270.464844 C 299.609375 287.992188 310.738281 307.273438 309.570312 333.769531 C 304.171875 333.929688 309.082031 332.617188 308.238281 329.53125 C 281.734375 325.15625 228.972656 319.253906 183.207031 321.621094 C 221.332031 327.605469 250.160156 336.84375 291.316406 332.027344 C 292.421875 337.648438 282.570312 335.675781 286.949219 340.378906 C 289.371094 345.34375 300.664062 340.339844 303.765625 343.5 C 304.042969 347.605469 301.035156 348.296875 299.417969 350.449219 C 309.097656 358.035156 324.835938 366.886719 332.863281 367.933594 C 337.40625 373.882812 333.167969 382.949219 335.203125 393.273438 C 331.601562 393.0625 333.046875 387.996094 331.117188 386.167969 C 328.382812 390.019531 327.597656 395.875 323.855469 398.679688 C 314.722656 397.085938 302.996094 403.265625 294.183594 406.578125 C 304.746094 409.484375 309.324219 405.96875 320.871094 408.46875 C 320.300781 412.175781 313.683594 409.605469 312.359375 412.527344 C 320.289062 414.085938 323.71875 419.980469 333.316406 419.9375 C 336.6875 422.601562 324.027344 420.71875 320.640625 421.109375 C 329.84375 424.660156 336.867188 430.320312 345.714844 434.214844 C 345.503906 438.769531 340.800781 438.664062 338.550781 441.121094 C 338.230469 448.339844 345.171875 448.542969 346.761719 453.914062 C 344.867188 460.347656 338.710938 456.808594 332.648438 456.460938 C 328.960938 459.21875 338.726562 460.640625 339.550781 463.617188 C 339.03125 466.902344 337.757812 469.394531 336.585938 472.003906 C 325.574219 470.128906 322.238281 476.21875 311.230469 474.34375 C 307 475.195312 312.515625 477.375 311.128906 479.972656 C 294.476562 476.945312 273.167969 483.261719 259.207031 473.394531 C 254.804688 472.652344 255.429688 477.113281 252.097656 477.484375 C 250.1875 481.648438 261.234375 483.246094 253.378906 484.53125 C 254.992188 487.9375 261.019531 483.992188 259.105469 479.011719 C 262.324219 493.414062 256 501.484375 252.839844 514.039062 C 228.679688 518.589844 201.390625 519.886719 176.710938 523.886719 C 180.199219 535.394531 173.613281 546.886719 171.875 557.542969 C 94.699219 598.035156 -37.550781 585.261719 -147.734375 577 C -195.300781 573.433594 -246.457031 569.386719 -275.261719 552.175781 C -273.023438 543.289062 -271.789062 538.75 -267.820312 529.820312 C -235.054688 525.960938 -187.75 533.855469 -144.09375 532.078125 C -185.691406 515.5 -246.664062 504.0625 -293.789062 488.582031 C -303.007812 485.554688 -313.183594 481.042969 -325.996094 480.964844 C -327.933594 475.921875 -330.675781 471.664062 -337.0625 470.921875 C -334.644531 466.84375 -331.929688 460.113281 -341.101562 461.011719 C -343.234375 445.042969 -347.628906 434.25 -340.382812 421.660156 C -345.285156 409.460938 -355.175781 400.152344 -343.929688 385.054688 C -352.589844 369.019531 -383.0625 373.988281 -391.246094 357.480469 C -394.640625 358 -394.253906 354.859375 -398.25 355.953125 C -399.71875 349.082031 -401.191406 342.21875 -407.804688 340.3125 C -410.375 343.347656 -408.886719 348.316406 -412.148438 347.300781 Z M -248.730469 254.699219 C -252.613281 258.871094 -257.3125 249.054688 -258.59375 255.921875 C -254.386719 255.628906 -250.105469 260.011719 -248.730469 254.699219 Z M -205.324219 265.335938 C -206.773438 260.238281 -219.953125 259.246094 -224.953125 262.167969 C -218.828125 262.753906 -211.832031 269.714844 -205.324219 265.335938 Z M -191.292969 267 C -196.140625 268.472656 -202.519531 259.75 -203.941406 266.769531 C -198.644531 264.996094 -194.304688 271.132812 -191.292969 267 Z M -164.683594 350.410156 C -174.0625 349.125 -193.355469 343.332031 -199.804688 348.367188 C -187.015625 349.507812 -173.8125 354.996094 -164.683594 350.410156 Z M -4.777344 297.109375 C 0.859375 296.464844 -10.675781 292.109375 -10.304688 291.386719 C -10.429688 291.621094 -4.648438 290.796875 -6.066406 290.058594 C -11.984375 286.933594 -18.167969 290.816406 -25.746094 289.699219 C -36.5 288.125 -47.496094 279.679688 -55.21875 286.351562 C -75.144531 278.386719 -95.773438 281 -115.546875 278.21875 C -139.390625 274.867188 -167.25 265.425781 -184.3125 269.933594 C -172.199219 273.25 -153.90625 275.699219 -142.363281 283.351562 C -143.457031 283.644531 -145.132812 283.335938 -145.191406 284.703125 C -132.070312 287.703125 -112.390625 291.730469 -100.3125 291.144531 C -102.375 287.609375 -112.433594 291.785156 -114.316406 288.082031 C -109.824219 284.292969 -103.757812 290.640625 -100.234375 286.929688 C -106.832031 285.472656 -113.71875 284.285156 -116.976562 279.59375 C -108.570312 282.957031 -96.199219 282.511719 -98.878906 289.765625 C -73.589844 288.738281 -38.949219 301.058594 -23.003906 293.964844 C -26.363281 292.980469 -37.683594 292.574219 -34.175781 289.546875 C -23.5 291.222656 -11.945312 292.054688 -4.777344 297.109375 Z M -156.738281 377.261719 C -86.445312 389.226562 5.628906 394.820312 73.632812 392.714844 C 7.066406 387.636719 -68.875 387.566406 -134.109375 370.644531 C -132.453125 370.460938 -130.125 370.964844 -129.871094 369.320312 C -141.726562 375.816406 -151.617188 361.40625 -166.34375 364.441406 C -164.847656 368.953125 -160.363281 371.632812 -156.738281 377.261719 Z M -84.773438 209.90625 C -91.851562 210.746094 -96.09375 208.859375 -100.179688 206.820312 C -101.4375 214.824219 -85.660156 216.027344 -84.773438 209.90625 Z M -46.648438 202.167969 C -44.363281 196.273438 -54.457031 202.332031 -52.167969 196.445312 C -50.386719 198.410156 -46.089844 197.9375 -42.355469 198.027344 C -46.269531 201.839844 -40.320312 199.382812 -39.621094 202.289062 C -41.734375 202.488281 -44.796875 201.691406 -45.269531 203.589844 C -38.683594 204.453125 -34.105469 205.132812 -25.648438 206.757812 C -26.191406 201.761719 -34.90625 204.648438 -35.355469 199.550781 C -23.890625 202.605469 -13.957031 206 -1.664062 202.976562 C -28.730469 196.265625 -60.214844 189.980469 -87.167969 187.359375 C -86.695312 192.152344 -82.890625 189.753906 -87.269531 192.980469 C -86.1875 193.3125 -84.5 193.066406 -84.496094 194.433594 C -78.347656 195.5625 -85.570312 191.621094 -81.628906 191.671875 C -71.351562 199.414062 -58.734375 197.980469 -46.648438 202.167969 Z M -51.097656 214.730469 C -59.113281 213.714844 -65.351562 210.976562 -74.949219 211.492188 C -66.339844 217.007812 -65.761719 215.519531 -51.097656 214.730469 Z M -29.445312 261.523438 C -32.433594 260.472656 -45.871094 257.152344 -44.921875 261.242188 C -38.703125 259.472656 -33.367188 265.644531 -29.445312 261.523438 Z M 7.03125 266.398438 C -0.699219 258.269531 -16.242188 265.980469 -26.617188 260.160156 C -25.386719 267.722656 -10.296875 261.921875 -7.058594 267.546875 C -19.273438 267.8125 -30.144531 266.785156 -40.777344 265.523438 C -1.664062 276.289062 52.082031 282.238281 89.792969 277.75 C 88.292969 277.785156 86.234375 277.023438 88.417969 276.316406 C 144.367188 281.664062 187.5625 287.960938 234.789062 270.558594 C 226.046875 271.339844 206.5625 266.601562 194.039062 268.410156 C 195.6875 268.65625 198.035156 268.238281 198.234375 269.890625 C 193.453125 270.234375 184.375 263.308594 189.792969 269.734375 C 165.855469 275.03125 158.742188 267.097656 143.375 270.296875 C 145.085938 270.480469 146.695312 270.78125 146.132812 273.15625 C 140.84375 265.453125 130.535156 272.070312 123.710938 268.527344 C 121.441406 274.855469 132.898438 267.957031 130.632812 274.285156 C 90.527344 266.019531 39.148438 265.9375 7.03125 266.398438 Z M 50.785156 257.363281 C 29.210938 250.339844 -0.441406 252.289062 -23.644531 251.789062 C -0.496094 254.855469 24.140625 259.414062 50.785156 257.363281 Z M 11.945312 73.917969 C 5.015625 70.527344 -4.519531 62.191406 -14.683594 69.21875 C -8.960938 72.929688 5.382812 75.617188 11.945312 73.917969 Z M 6.46875 297.3125 C 4.875 288.691406 4.539062 295.519531 -3.300781 292.921875 C -3.496094 297.710938 1.835938 297.179688 6.46875 297.3125 Z M 20.601562 293.351562 C 19.871094 295.84375 19.113281 292.71875 17.824219 291.898438 C 15.335938 294.789062 9.703125 292.175781 6.550781 293.09375 C 8.511719 293.5 8.09375 296.207031 9.28125 297.359375 C 14.726562 296.710938 16.097656 299.992188 21.902344 298.996094 C 20.179688 295.449219 22.695312 294.617188 20.601562 293.351562 Z M 64.117188 221.0625 C 62.457031 221.25 60.128906 220.746094 59.875 222.386719 C 76.441406 229.839844 89.3125 230.871094 114.574219 230.410156 C 121.394531 218.191406 149.265625 230.847656 161.148438 221.425781 C 137.207031 223.914062 118.636719 222.039062 99.339844 217.488281 C 122.300781 218.933594 140.503906 216.550781 157.011719 217.140625 C 139.042969 207.046875 107.941406 213.480469 81.136719 212.941406 C 55.628906 212.425781 29.730469 207.832031 8.085938 208.804688 C 26.644531 212.839844 49.335938 217.65625 64.117188 221.0625 Z M 56.558594 95.816406 C 55.617188 98.804688 47.875 96.96875 46.707031 95.636719 C 51.316406 104.550781 70.378906 99.515625 80.328125 103.273438 C 77.625 96.683594 63.0625 101.507812 62.230469 93.109375 C 69.191406 95.707031 82.726562 98.875 86.183594 90.738281 C 71.363281 89.769531 54.839844 83.316406 48.199219 91.453125 C 38.5 84.558594 32.820312 86.660156 18.777344 85.285156 C 18.675781 87.082031 16.941406 87.199219 17.300781 89.472656 C 30.785156 98.5625 42.046875 91.339844 56.558594 95.816406 Z M 102.007812 71.34375 C 87.203125 70.515625 77.027344 70.113281 65.5625 65.054688 C 73.011719 62.980469 80.925781 70.289062 83.859375 63.980469 C 63.304688 60.632812 43.847656 55.839844 22.058594 60.046875 C 39.960938 63.800781 53.339844 63.722656 66.863281 70.699219 C 60.808594 69.757812 52.042969 71.769531 44.3125 73.097656 C 67.226562 79.898438 99.34375 80.835938 122.886719 82.96875 C 121.992188 78.765625 117.8125 77.742188 116.015625 74.410156 C 134.839844 81.21875 155.289062 87.101562 177.722656 83.96875 C 152.765625 76.59375 140.773438 73.367188 107.605469 72.855469 C 105.386719 65.34375 89.414062 65.246094 86.621094 66.839844 C 95.390625 67.59375 98.296875 67.816406 102.007812 71.34375 Z M 38.828125 296.503906 C 34.765625 294.691406 28.300781 297.035156 23.414062 293.410156 C 23.773438 301.234375 33.800781 298.550781 38.828125 296.503906 Z M 21.824219 303.214844 C 26.117188 302.414062 33.902344 305.234375 35.914062 302.070312 C 30.589844 301.296875 23.816406 296.472656 21.824219 303.214844 Z M 37.007812 318.957031 C 30.265625 321.351562 29.886719 317.71875 24.410156 315.921875 C 24.15625 320.082031 35.742188 325.191406 37.007812 318.957031 Z M 68.816406 194.4375 C 73.332031 195.175781 67.570312 200.78125 63.039062 202.769531 C 62.382812 196.835938 41.152344 202.542969 50.515625 195.511719 C 39.707031 196.507812 33.730469 192.726562 28.015625 195.101562 C 32.125 199.429688 42.367188 197.832031 46.164062 202.460938 C 44.445312 202.582031 42.820312 202.820312 43.308594 205.214844 C 67.027344 209.949219 101.722656 211.308594 130.453125 208.214844 C 123.179688 199.417969 109.363281 203.984375 96.855469 199.167969 C 104.375 199.328125 112.402344 200.011719 116.585938 196.71875 C 98.371094 189.96875 87.195312 193.542969 68.816406 194.4375 Z M 48.230469 320.5625 C 47.140625 320.863281 45.464844 320.554688 45.398438 321.921875 C 56.304688 321.589844 73.976562 327.714844 81.972656 321.179688 C 77.234375 321.9375 72.523438 320.503906 76.429688 316.867188 C 67.183594 320.53125 53.761719 313.117188 44.058594 317.675781 C 45.714844 318.398438 47.226562 319.242188 48.230469 320.5625 Z M 138.210938 322.207031 C 131.417969 320.820312 121.679688 322.511719 115.6875 323.203125 C 122.433594 325.503906 132.890625 327.375 138.210938 322.207031 Z M 153.601562 326.714844 C 150.308594 327.011719 141.695312 321.226562 142.355469 326.507812 C 144.984375 326.863281 151.609375 330.292969 153.601562 326.714844 Z M 162.132812 90.714844 C 159.433594 86.078125 150.675781 85.324219 149.511719 89.074219 C 152.984375 90.324219 156.996094 91.0625 162.132812 90.714844 Z M 162.132812 90.714844 " fill-opacity="1" fill-rule="evenodd"/></g></g></g></g></g></g></g><g clip-path="url(#805084bd14)"><g mask="url(#dbda10446a)"><g transform="matrix(1, 0, 0, 1, 182, 0)"><g clip-path="url(#887c5dbe1b)"><g clip-path="url(#087ccb80a3)"><g clip-path="url(#cb10b1ec66)"><g clip-path="url(#66c76d3d10)"><path fill="#ff66c4" d="M 99.851562 101.433594 C 97.023438 97.308594 107.023438 91.367188 100.132812 85.976562 C 97.730469 85.867188 96.464844 86.949219 95.863281 88.703125 C 92.746094 88.058594 94.894531 81.226562 96.015625 80.273438 C 95.480469 77.101562 88.566406 80.09375 87.632812 77.308594 C 96.074219 52.171875 116.6875 39.65625 141.90625 31.914062 C 110.578125 14.34375 47.15625 17.335938 15.753906 8.53125 C 14.667969 -2.074219 11.785156 -7.652344 14.839844 -18.199219 C 15.878906 -21.953125 11.980469 -20.960938 10.703125 -22.484375 C 16.6875 -34.703125 18.546875 -43.625 21.238281 -60.242188 C 37.757812 -69.910156 57.949219 -75.65625 80.570312 -74.625 C 91.382812 -74.125 101.777344 -67.03125 111.367188 -67.03125 C 116.285156 -67.03125 119.457031 -69.421875 126.839844 -66.746094 C 128.691406 -69.09375 126.640625 -75.363281 129.875 -79.34375 C 123.320312 -86.828125 109.054688 -86.886719 102.015625 -93.90625 C 98.351562 -92.167969 97.542969 -91.089844 99.078125 -86.9375 C 97.039062 -89.578125 91.847656 -89.175781 92.171875 -94.085938 C 93.539062 -94.027344 93.238281 -92.351562 93.53125 -91.257812 C 97.519531 -90.941406 92.003906 -100.480469 97.875 -98.210938 C 92.097656 -104.46875 90.972656 -111.53125 82.671875 -112.542969 C 82.320312 -118.148438 82.777344 -122.917969 85.707031 -125.132812 C 72.929688 -145.460938 94.292969 -157.429688 104.804688 -169.765625 C 126.070312 -182.441406 150.996094 -173.078125 175.28125 -178.320312 C 175.796875 -178.433594 178.691406 -179.148438 179.519531 -179.644531 C 199.910156 -191.839844 219.386719 -221.511719 251.832031 -212.058594 C 256.261719 -215.746094 248.253906 -217.476562 251.984375 -220.488281 C 261.453125 -218.789062 266.808594 -221.347656 267.605469 -228.636719 C 285.386719 -223.339844 292.414062 -226.382812 308.460938 -232.109375 C 307.121094 -234.023438 304.765625 -234.980469 302.914062 -236.425781 C 314.378906 -236.730469 327.863281 -231.875 339.359375 -230.128906 C 340.398438 -233.890625 336.507812 -232.902344 335.222656 -234.417969 C 348.84375 -237.417969 367.117188 -232.957031 380.15625 -230.792969 C 382.066406 -231.191406 381.386719 -234.285156 381.660156 -236.386719 C 391.34375 -235.019531 410.488281 -234.84375 419.492188 -228.667969 C 422.550781 -229.613281 429.640625 -230.265625 434.964844 -228.382812 C 465.5625 -217.570312 506.453125 -208.511719 540.019531 -205.378906 C 546.4375 -204.789062 553.046875 -208.015625 558.246094 -202.242188 C 588.199219 -203.871094 612.980469 -189.921875 640.886719 -183.859375 C 669.921875 -177.5625 698.710938 -168.902344 725.015625 -169.679688 C 723.484375 -173.027344 711.003906 -174.691406 708.351562 -181.226562 C 745.65625 -178.089844 763.476562 -165.3125 793.675781 -155.769531 C 793.042969 -152.398438 796.1875 -152.671875 794.949219 -148.71875 C 808.785156 -137.464844 815.015625 -124.015625 832.292969 -114.296875 C 830.992188 -111.839844 826.558594 -112.609375 827.949219 -107.347656 C 836.75 -102.121094 828.570312 -101.308594 839.042969 -98.710938 C 837.46875 -95.097656 835.503906 -91.886719 836.007812 -86.121094 C 832.007812 -83.941406 830.054688 -88.585938 830.300781 -82.011719 C 827.246094 -81.832031 829.75 -87.011719 829.023438 -89.058594 C 823.988281 -86.382812 826.207031 -87.285156 820.582031 -89.214844 C 818.070312 -82.1875 824.953125 -84.21875 827.488281 -82.0625 C 826.546875 -76.84375 830.925781 -73.109375 827.257812 -69.414062 C 828.867188 -65.800781 840.085938 -64.996094 832.726562 -60.882812 C 839.046875 -58.234375 840.796875 -51.171875 849.421875 -50.738281 C 848.039062 -42.769531 847.417969 -42.648438 846.328125 -35.335938 C 843.832031 -35.0625 839.3125 -36.882812 840.652344 -32.628906 C 834.871094 -32.085938 841.28125 -35.625 839.371094 -39.683594 C 831.777344 -39.5625 819.273438 -24.449219 818.136719 -31.632812 C 812.320312 -26.101562 812.160156 -23.875 799.710938 -23.535156 C 800.234375 -20.820312 805.132812 -22.335938 803.820312 -17.839844 C 799.367188 -17.230469 798.894531 -20.460938 794.003906 -19.417969 C 794.699219 -10.890625 806.363281 -12.921875 812.101562 -9.253906 C 810.332031 -3.953125 809.675781 -1.757812 803.566406 -3.789062 C 801.195312 5.96875 810.6875 7.5 814.675781 3.445312 C 812.601562 8.464844 809.082031 11.957031 806.015625 15.9375 C 810.039062 18.960938 813.773438 22.269531 818.503906 24.601562 C 811.609375 42.128906 822.738281 61.40625 821.570312 87.902344 C 816.171875 88.0625 821.082031 86.75 820.238281 83.667969 C 793.734375 79.292969 740.972656 73.390625 695.207031 75.753906 C 733.332031 81.738281 762.160156 90.976562 803.316406 86.160156 C 804.421875 91.78125 794.570312 89.808594 798.949219 94.515625 C 801.371094 99.476562 812.664062 94.472656 815.769531 97.632812 C 816.042969 101.738281 813.035156 102.429688 811.417969 104.582031 C 821.097656 112.167969 836.835938 121.019531 844.863281 122.066406 C 849.410156 128.015625 845.167969 137.082031 847.203125 147.40625 C 843.601562 147.195312 845.046875 142.128906 843.121094 140.300781 C 840.382812 144.152344 839.597656 150.011719 835.855469 152.816406 C 826.722656 151.21875 814.996094 157.398438 806.183594 160.714844 C 816.746094 163.617188 821.324219 160.105469 832.871094 162.601562 C 832.300781 166.308594 825.683594 163.742188 824.359375 166.660156 C 832.289062 168.21875 835.71875 174.113281 845.316406 174.074219 C 848.6875 176.738281 836.027344 174.851562 832.640625 175.242188 C 841.84375 178.792969 848.867188 184.453125 857.714844 188.347656 C 857.503906 192.90625 852.800781 192.796875 850.550781 195.253906 C 850.230469 202.472656 857.171875 202.675781 858.761719 208.050781 C 856.867188 214.480469 850.710938 210.941406 844.648438 210.59375 C 840.960938 213.351562 850.726562 214.773438 851.550781 217.75 C 851.03125 221.035156 849.757812 223.527344 848.585938 226.136719 C 837.574219 224.261719 834.238281 230.351562 823.230469 228.476562 C 819 229.328125 824.515625 231.507812 823.128906 234.105469 C 806.476562 231.082031 785.167969 237.394531 771.207031 227.527344 C 766.804688 226.785156 767.429688 231.246094 764.097656 231.617188 C 762.1875 235.78125 773.234375 237.378906 765.378906 238.664062 C 766.992188 242.070312 773.019531 238.128906 771.105469 233.148438 C 774.324219 247.546875 768 255.621094 764.839844 268.171875 C 740.679688 272.726562 713.390625 274.019531 688.710938 278.019531 C 692.199219 289.527344 685.613281 301.019531 683.875 311.675781 C 606.699219 352.171875 474.449219 339.398438 364.265625 331.132812 C 316.699219 327.566406 265.542969 323.519531 236.738281 306.3125 C 238.976562 297.421875 240.210938 292.882812 244.179688 283.953125 C 276.945312 280.09375 324.25 287.988281 367.90625 286.214844 C 326.308594 269.632812 265.335938 258.199219 218.210938 242.71875 C 208.992188 239.6875 198.816406 235.179688 186.003906 235.097656 C 184.066406 230.054688 181.324219 225.800781 174.9375 225.054688 C 177.355469 220.976562 180.070312 214.246094 170.898438 215.144531 C 168.765625 199.175781 164.371094 188.382812 171.617188 175.792969 C 166.714844 163.59375 156.824219 154.285156 168.070312 139.1875 C 159.410156 123.152344 128.941406 128.121094 120.753906 111.617188 C 117.359375 112.132812 117.746094 108.996094 113.75 110.085938 C 112.28125 103.214844 110.808594 96.355469 104.195312 94.449219 C 101.625 97.484375 103.113281 102.449219 99.851562 101.433594 Z M 263.269531 8.835938 C 259.386719 13.003906 254.6875 3.1875 253.40625 10.058594 C 257.613281 9.765625 261.894531 14.144531 263.269531 8.835938 Z M 306.675781 19.46875 C 305.226562 14.371094 292.046875 13.378906 287.046875 16.300781 C 293.171875 16.886719 300.167969 23.851562 306.675781 19.46875 Z M 320.707031 21.132812 C 315.859375 22.609375 309.480469 13.886719 308.058594 20.902344 C 313.355469 19.132812 317.695312 25.265625 320.707031 21.132812 Z M 347.316406 104.546875 C 337.9375 103.257812 318.644531 97.464844 312.195312 102.503906 C 324.984375 103.640625 338.1875 109.128906 347.316406 104.546875 Z M 507.222656 51.242188 C 512.859375 50.597656 501.324219 46.246094 501.695312 45.519531 C 501.570312 45.753906 507.351562 44.929688 505.933594 44.195312 C 500.015625 41.066406 493.832031 44.949219 486.253906 43.835938 C 475.5 42.257812 464.503906 33.8125 456.78125 40.484375 C 436.855469 32.519531 416.226562 35.132812 396.453125 32.351562 C 372.613281 29 344.75 19.558594 327.6875 24.066406 C 339.800781 27.382812 358.09375 29.832031 369.636719 37.484375 C 368.542969 37.777344 366.867188 37.46875 366.808594 38.835938 C 379.929688 41.835938 399.609375 45.863281 411.6875 45.277344 C 409.625 41.746094 399.566406 45.921875 397.683594 42.21875 C 402.175781 38.429688 408.242188 44.773438 411.765625 41.066406 C 405.167969 39.605469 398.28125 38.417969 395.023438 33.730469 C 403.429688 37.089844 415.800781 36.648438 413.121094 43.902344 C 438.410156 42.871094 473.050781 55.191406 488.996094 48.097656 C 485.636719 47.117188 474.316406 46.707031 477.828125 43.679688 C 488.5 45.355469 500.054688 46.1875 507.222656 51.242188 Z M 355.261719 131.398438 C 425.554688 143.359375 517.628906 148.953125 585.632812 146.847656 C 519.066406 141.769531 443.125 141.699219 377.890625 124.78125 C 379.546875 124.59375 381.875 125.097656 382.128906 123.457031 C 370.273438 129.949219 360.382812 115.539062 345.65625 118.578125 C 347.152344 123.089844 351.636719 125.765625 355.261719 131.398438 Z M 427.226562 -35.960938 C 420.148438 -35.121094 415.90625 -37.003906 411.820312 -39.046875 C 410.5625 -31.042969 426.339844 -29.839844 427.226562 -35.960938 Z M 465.351562 -43.699219 C 467.636719 -49.59375 457.542969 -43.535156 459.832031 -49.421875 C 461.613281 -47.457031 465.914062 -47.929688 469.644531 -47.839844 C 465.730469 -44.027344 471.679688 -46.484375 472.378906 -43.578125 C 470.265625 -43.378906 467.203125 -44.171875 466.730469 -42.277344 C 473.316406 -41.410156 477.894531 -40.734375 486.351562 -39.109375 C 485.808594 -44.105469 477.09375 -41.214844 476.644531 -46.316406 C 488.109375 -43.261719 498.042969 -39.863281 510.335938 -42.890625 C 483.269531 -49.597656 451.785156 -55.886719 424.832031 -58.507812 C 425.304688 -53.714844 429.109375 -56.113281 424.730469 -52.886719 C 425.8125 -52.554688 427.5 -52.800781 427.503906 -51.433594 C 433.652344 -50.304688 426.429688 -54.242188 430.371094 -54.191406 C 440.648438 -46.449219 453.265625 -47.886719 465.351562 -43.699219 Z M 460.902344 -31.132812 C 452.886719 -32.152344 446.648438 -34.886719 437.050781 -34.375 C 445.660156 -28.859375 446.238281 -30.347656 460.902344 -31.132812 Z M 482.554688 15.660156 C 479.566406 14.605469 466.128906 11.285156 467.078125 15.375 C 473.296875 13.605469 478.632812 19.777344 482.554688 15.660156 Z M 519.03125 20.53125 C 511.300781 12.402344 495.757812 20.113281 485.382812 14.292969 C 486.613281 21.855469 501.703125 16.058594 504.941406 21.683594 C 492.726562 21.949219 481.855469 20.917969 471.222656 19.65625 C 510.335938 30.421875 564.082031 36.371094 601.796875 31.882812 C 600.292969 31.917969 598.234375 31.15625 600.417969 30.449219 C 656.367188 35.796875 699.5625 42.09375 746.789062 24.691406 C 738.046875 25.472656 718.5625 20.738281 706.039062 22.546875 C 707.6875 22.792969 710.035156 22.375 710.234375 24.023438 C 705.453125 24.367188 696.375 17.445312 701.792969 23.871094 C 677.855469 29.164062 670.742188 21.230469 655.375 24.429688 C 657.085938 24.613281 658.695312 24.917969 658.132812 27.292969 C 652.84375 19.585938 642.535156 26.203125 635.710938 22.664062 C 633.441406 28.988281 644.898438 22.089844 642.632812 28.417969 C 602.527344 20.152344 551.148438 20.070312 519.03125 20.53125 Z M 562.785156 11.496094 C 541.210938 4.476562 511.558594 6.421875 488.355469 5.921875 C 511.503906 8.988281 536.140625 13.546875 562.785156 11.496094 Z M 523.945312 -171.949219 C 517.015625 -175.339844 507.480469 -183.675781 497.316406 -176.648438 C 503.039062 -172.9375 517.382812 -170.25 523.945312 -171.949219 Z M 518.46875 51.445312 C 516.875 42.824219 516.539062 49.652344 508.699219 47.054688 C 508.503906 51.84375 513.835938 51.3125 518.46875 51.445312 Z M 532.601562 47.484375 C 531.871094 49.976562 531.113281 46.851562 529.824219 46.03125 C 527.335938 48.925781 521.703125 46.308594 518.550781 47.230469 C 520.511719 47.632812 520.09375 50.339844 521.28125 51.492188 C 526.726562 50.84375 528.097656 54.128906 533.902344 53.132812 C 532.179688 49.585938 534.695312 48.75 532.601562 47.484375 Z M 576.117188 -24.800781 C 574.457031 -24.617188 572.128906 -25.121094 571.875 -23.476562 C 588.441406 -16.027344 601.3125 -14.996094 626.574219 -15.453125 C 633.394531 -27.675781 661.265625 -15.015625 673.148438 -24.4375 C 649.207031 -21.953125 630.636719 -23.828125 611.339844 -28.378906 C 634.300781 -26.933594 652.503906 -29.316406 669.011719 -28.726562 C 651.042969 -38.820312 619.941406 -32.386719 593.140625 -32.925781 C 567.628906 -33.4375 541.730469 -38.035156 520.085938 -37.0625 C 538.644531 -33.027344 561.335938 -28.210938 576.117188 -24.800781 Z M 568.558594 -150.050781 C 567.617188 -147.058594 559.875 -148.894531 558.707031 -150.230469 C 563.316406 -141.316406 582.378906 -146.351562 592.328125 -142.589844 C 589.625 -149.183594 575.0625 -144.355469 574.230469 -152.753906 C 581.191406 -150.160156 594.726562 -146.988281 598.183594 -155.128906 C 583.363281 -156.097656 566.839844 -162.550781 560.199219 -154.414062 C 550.5 -161.308594 544.824219 -159.207031 530.777344 -160.582031 C 530.675781 -158.78125 528.941406 -158.667969 529.300781 -156.394531 C 542.785156 -147.304688 554.046875 -154.527344 568.558594 -150.050781 Z M 614.007812 -174.523438 C 599.203125 -175.351562 589.027344 -175.753906 577.5625 -180.8125 C 585.011719 -182.886719 592.925781 -175.578125 595.859375 -181.886719 C 575.304688 -185.234375 555.847656 -190.023438 534.058594 -185.820312 C 551.960938 -182.066406 565.339844 -182.144531 578.863281 -175.164062 C 572.808594 -176.105469 564.042969 -174.097656 556.3125 -172.765625 C 579.226562 -165.964844 611.34375 -165.03125 634.886719 -162.898438 C 633.992188 -167.101562 629.8125 -168.125 628.015625 -171.457031 C 646.839844 -164.648438 667.289062 -158.765625 689.722656 -161.898438 C 664.769531 -169.273438 652.773438 -172.496094 619.605469 -173.011719 C 617.386719 -180.523438 601.414062 -180.621094 598.621094 -179.023438 C 607.394531 -178.269531 610.296875 -178.050781 614.007812 -174.523438 Z M 550.828125 50.636719 C 546.765625 48.824219 540.300781 51.167969 535.414062 47.542969 C 535.773438 55.371094 545.800781 52.6875 550.828125 50.636719 Z M 533.824219 57.351562 C 538.117188 56.550781 545.902344 59.371094 547.914062 56.207031 C 542.589844 55.429688 535.816406 50.605469 533.824219 57.351562 Z M 549.007812 73.089844 C 542.265625 75.484375 541.886719 71.851562 536.410156 70.054688 C 536.15625 74.214844 547.742188 79.324219 549.007812 73.089844 Z M 580.816406 -51.429688 C 585.332031 -50.691406 579.570312 -45.085938 575.039062 -43.097656 C 574.382812 -49.03125 553.152344 -43.320312 562.515625 -50.355469 C 551.707031 -49.359375 545.730469 -53.136719 540.015625 -50.765625 C 544.125 -46.4375 554.367188 -48.035156 558.164062 -43.402344 C 556.445312 -43.28125 554.824219 -43.046875 555.308594 -40.652344 C 579.027344 -35.914062 613.722656 -34.558594 642.453125 -37.652344 C 635.179688 -46.449219 621.363281 -41.878906 608.855469 -46.699219 C 616.375 -46.539062 624.402344 -45.855469 628.585938 -49.148438 C 610.371094 -55.898438 599.195312 -52.320312 580.816406 -51.429688 Z M 560.230469 74.695312 C 559.140625 75 557.464844 74.6875 557.398438 76.054688 C 568.304688 75.722656 585.976562 81.847656 593.972656 75.3125 C 589.234375 76.070312 584.523438 74.636719 588.429688 71 C 579.183594 74.667969 565.761719 67.25 556.058594 71.808594 C 557.714844 72.53125 559.226562 73.375 560.230469 74.695312 Z M 650.210938 76.339844 C 643.417969 74.953125 633.679688 76.644531 627.6875 77.339844 C 634.433594 79.636719 644.890625 81.507812 650.210938 76.339844 Z M 665.601562 80.847656 C 662.308594 81.144531 653.695312 75.359375 654.355469 80.644531 C 656.984375 81 663.609375 84.425781 665.601562 80.847656 Z M 674.132812 -155.152344 C 671.433594 -159.789062 662.675781 -160.542969 661.511719 -156.789062 C 664.984375 -155.542969 668.996094 -154.804688 674.132812 -155.152344 Z M 674.132812 -155.152344 " fill-opacity="1" fill-rule="evenodd"/></g></g></g></g></g></g></g></svg>